<svg width="29" height="30" viewBox="0 0 29 30" fill="none" xmlns="http://www.w3.org/2000/svg">
<g clip-path="url(#clip0_1_719)">
<path d="M27.5519 12.8477C27.5232 12.7447 27.4945 12.6386 27.4594 12.5259L27.4913 12.5517C27.7444 12.78 27.9486 13.0581 28.0912 13.3689C28.047 12.8513 27.8971 12.3485 27.6509 11.8921C27.3605 11.461 27.0127 11.1649 26.7606 10.8303C26.3342 10.312 26.023 9.70741 25.8479 9.05748C25.7107 8.27884 25.7011 7.27498 25.899 6.77305C26.4702 5.31552 26.8563 5.84641 27.3254 4.47897C27.5998 3.26597 27.2775 1.67331 26.3011 0.859281C25.7847 0.355438 25.1042 0.0581176 24.3864 0.0227332C22.8516 0.196478 22.2421 0.344481 21.0072 1.53817C20.5764 1.95967 20.4232 2.41334 19.7307 2.30394C18.7543 2.13341 18.1352 1.69905 17.1779 1.48669C16.4147 1.38294 15.6379 1.48738 14.9283 1.78914C13.5083 2.00793 12.8764 1.19712 11.8011 1.38051C10.7257 1.56391 10.7831 2.02402 9.6886 2.13985C9.0504 2.17202 8.77916 2.19133 8.37709 1.8181C7.97502 1.44487 7.3432 0.656577 6.30293 0.28013C5.45093 -0.0416208 3.89051 -0.241106 2.64602 0.48605C1.51001 1.30973 0.999449 2.09481 1.21006 3.44616C1.42066 4.79751 1.96952 5.05491 2.64602 6.25503C2.88986 6.63763 3.05235 7.06707 3.1232 7.51621C3.19405 7.96535 3.17174 8.42443 3.05766 8.86443C3.02256 9.006 2.84386 10.1675 2.14822 10.8335C1.81364 11.1534 1.51507 11.5095 1.25792 11.8953C1.01118 12.3513 0.862243 12.8544 0.820754 13.3722C0.961682 13.0612 1.16484 12.7829 1.41747 12.5549L1.45258 12.5259C1.39514 12.7093 1.34408 12.9056 1.30898 13.0761C0.508034 14.7589 -0.085496 16.5028 0.0325718 18.3561C0.109156 19.1122 0.0836275 19.9648 0.565472 20.6083C0.565472 20.3413 0.565472 20.071 0.546326 19.8039H0.705877C0.705877 19.8554 0.740978 19.9069 0.760124 19.9584C1.10475 21.6604 1.85783 23.3464 3.26188 24.4629C3.12814 24.151 3.02137 23.8281 2.94278 23.4976C3.15044 23.7316 3.37786 23.9469 3.62247 24.1411C3.5778 24.0285 3.53312 23.9159 3.49164 23.8194C4.49266 25.0054 5.66523 26.0326 6.96985 26.8664C9.20357 28.3625 11.9542 29.2377 14.523 29.9938C14.9488 29.9238 15.3652 29.8051 15.7643 29.6398C18.4724 28.6868 21.0351 27.3569 23.3781 25.6888C24.1212 25.1603 24.8222 24.574 25.4746 23.9352C25.4491 23.9996 25.4235 24.0671 25.3948 24.1315C25.6397 23.9364 25.8681 23.7211 26.0777 23.488C25.9985 23.8182 25.8918 24.1411 25.7586 24.4532C27.1626 23.3368 27.9157 21.6508 28.2603 19.9487C28.2795 19.8972 28.2986 19.8458 28.3146 19.7943H28.4773C28.4614 20.0613 28.455 20.3316 28.455 20.5987C28.94 19.9552 28.9145 19.1154 28.9879 18.3464C29.1028 16.4352 28.4231 14.6045 27.5519 12.8477ZM24.1216 3.19519C23.5695 4.10574 22.8005 4.50793 23.4611 4.50793C23.4758 4.50649 23.4907 4.50832 23.5047 4.51326C23.5186 4.5182 23.5314 4.52616 23.542 4.53657C23.5526 4.54697 23.5609 4.55959 23.5662 4.57353C23.5715 4.58748 23.5737 4.60242 23.5727 4.61733C23.5727 4.72994 23.4323 4.86507 23.4323 4.99377C23.4323 5.04525 23.461 5.11282 23.5121 5.11282C23.5632 5.11282 23.6621 5.01952 23.7451 5.01952H23.7738C23.7845 5.02183 23.7939 5.02802 23.8004 5.03691C23.8069 5.04581 23.8099 5.05679 23.8089 5.06778C23.811 5.08487 23.811 5.10216 23.8089 5.11926C23.7738 5.24474 23.611 5.35091 23.611 5.48283C23.6112 5.51321 23.6189 5.54306 23.6334 5.56971C23.8631 5.9912 23.9078 6.44487 24.1056 6.85671C23.4515 6.27112 22.4112 5.38309 22.4112 4.62054C22.4016 3.80008 25.2416 1.36443 24.1216 3.20484V3.19519ZM18.499 7.95388C18.0363 7.60317 16.243 8.02144 16.243 8.02144C17.7491 6.61861 18.499 7.96353 18.499 7.96353V7.95388ZM16.495 9.04461C16.9163 8.89339 21.757 8.03753 22.3697 9.54976C22.7367 10.4442 22.3984 10.9462 22.0347 11.2615C21.7985 11.4642 21.3518 11.506 21.288 11.3419C21.288 11.3419 21.6071 10.9815 21.288 10.2222C20.9018 9.25697 20.12 9.62376 19.0319 10.0195C18.6011 10.174 18.1799 10.3831 17.7555 10.5407C17.2673 10.7177 16.3259 10.9655 16.16 10.5407C16.0958 10.2954 16.0721 10.041 16.0898 9.78785C16.0787 9.639 16.1112 9.49015 16.1833 9.35975C16.2553 9.22934 16.3637 9.12312 16.495 9.05426V9.04461ZM18.8053 12.5453C19.8265 12.4133 20.5253 11.4963 20.5445 11.6283C20.7359 13.1341 17.4875 13.4751 17.3534 12.3715C17.3279 12.246 17.7874 12.6868 18.8053 12.5549V12.5453ZM18.5756 10.7016C19.1787 10.544 19.5967 10.2512 19.7531 10.8561C19.7943 11.0016 19.8062 11.154 19.7881 11.3042C19.7701 11.4545 19.7224 11.5996 19.648 11.731C19.5735 11.8624 19.4738 11.9775 19.3546 12.0695C19.2354 12.1615 19.0992 12.2286 18.9539 12.2667C18.8087 12.3049 18.6573 12.3134 18.5088 12.2918C18.3602 12.2701 18.2175 12.2188 18.0889 12.1407C17.9603 12.0626 17.8484 11.9594 17.76 11.8372C17.6715 11.7149 17.6081 11.5761 17.5736 11.4288C17.4173 10.8303 17.9725 10.8689 18.5724 10.7113L18.5756 10.7016ZM14.3985 10.7885C15.2857 10.8335 15.8505 12.3586 16.1377 13.192C16.3667 13.0408 16.5805 12.8673 16.7759 12.674C17.9916 13.977 17.58 16.0105 18.783 17.3168C19.2042 17.8252 19.8488 18.163 19.8137 18.9256C19.7786 19.6881 19.7595 20.5343 19.2457 21.1102C18.2884 21.8438 16.5908 21.4577 15.7356 20.7306C16.5238 19.997 17.4077 19.2634 17.7715 18.2435C17.9087 17.8895 17.8704 17.349 17.4173 17.2782C16.6929 17.1752 16.1057 17.4005 15.4101 17.5163C14.2135 17.8059 12.9849 17.2428 11.7915 17.5613C11.6984 17.5861 11.6117 17.631 11.5375 17.6928C11.4632 17.7545 11.4031 17.8318 11.3612 17.9192C11.3194 18.0067 11.2968 18.1022 11.2951 18.1993C11.2933 18.2963 11.3125 18.3926 11.3511 18.4815C11.6415 19.3824 12.7105 20.0903 13.3902 20.6984C12.8764 21.1424 11.9 21.6379 11.1756 21.5736C10.5151 21.5478 9.76199 21.2969 9.46523 20.6469C9.14613 19.9359 9.39822 19.1444 9.67903 18.4655C9.87596 17.9695 10.1355 17.5013 10.4513 17.0723C11.4086 15.7435 11.1118 13.9481 12.2414 12.7093C12.5063 12.7576 12.6658 13.0311 12.8796 13.1759C13.1477 12.5292 13.5625 10.9333 14.3985 10.7981V10.7885ZM14.8293 23.2081C13.1221 23.2081 12.3531 22.6933 12.4648 22.1109C12.5063 21.8857 17.1141 21.8696 17.1556 22.1109C17.2577 22.7061 16.5365 23.2177 14.8293 23.2177V23.2081ZM10.2311 12.5453C11.249 12.6772 11.7085 12.2235 11.6926 12.3715C11.5522 13.4751 8.3037 13.1341 8.50154 11.6283C8.51112 11.506 9.21314 12.423 10.2311 12.5549V12.5453ZM9.27377 10.8561C9.43013 10.2512 9.85134 10.5343 10.4513 10.7016C11.0512 10.8689 11.6096 10.8207 11.4532 11.4288C11.4187 11.5761 11.3554 11.7149 11.2669 11.8372C11.1784 11.9594 11.0666 12.0626 10.938 12.1407C10.8094 12.2188 10.6666 12.2701 10.5181 12.2918C10.3695 12.3134 10.2182 12.3049 10.0729 12.2667C9.92765 12.2286 9.79143 12.1615 9.67225 12.0695C9.55306 11.9775 9.45331 11.8624 9.37886 11.731C9.30441 11.5996 9.25677 11.4545 9.23872 11.3042C9.22067 11.154 9.23259 11.0016 9.27377 10.8561ZM12.6435 8.12119C12.235 7.70613 10.4098 7.85413 10.4098 7.85413C12.1042 6.6894 12.6531 8.13084 12.6531 8.13084L12.6435 8.12119ZM12.5031 9.08644C12.6378 9.15544 12.7491 9.26322 12.823 9.39612C12.8968 9.52901 12.9299 9.68104 12.9179 9.8329C12.9256 10.0861 12.8943 10.339 12.8254 10.5826C12.6339 11.0137 11.6989 10.7241 11.2299 10.5247C10.7991 10.3477 10.3842 10.1193 9.95345 9.94551C8.87808 9.5015 8.10585 9.11861 7.69102 10.0485C7.37192 10.7981 7.65911 11.1714 7.65911 11.1714C7.58572 11.329 7.14217 11.2679 6.9156 11.0555C6.55821 10.7338 6.23592 10.2093 6.62522 9.33097C7.28576 7.84448 12.0978 8.90947 12.5095 9.08322L12.5031 9.08644ZM6.51992 4.66559C6.51992 5.42814 5.47964 6.31617 4.82548 6.90175C5.02333 6.47704 5.068 6.02659 5.29776 5.61475C5.31262 5.58826 5.32032 5.55831 5.32009 5.52788C5.32009 5.39596 5.15735 5.28978 5.12225 5.1643C5.11985 5.14723 5.11985 5.1299 5.12225 5.11282C5.12122 5.10184 5.12423 5.09086 5.1307 5.08196C5.13717 5.07307 5.14665 5.06688 5.15735 5.06456H5.17012C5.25308 5.06456 5.33924 5.15787 5.40306 5.15787C5.46688 5.15787 5.48284 5.0903 5.48284 5.03882C5.48284 4.91334 5.34243 4.77498 5.34243 4.66237C5.34144 4.64747 5.34367 4.63252 5.34898 4.61858C5.35428 4.60463 5.36254 4.59202 5.37316 4.58161C5.38379 4.5712 5.39653 4.56325 5.41051 4.5583C5.42449 4.55336 5.43937 4.55154 5.45412 4.55297C6.11785 4.55297 5.34562 4.15079 4.79357 3.24345C3.67991 1.39017 6.51992 3.82582 6.51992 4.66559ZM25.8352 20.7531C25.8352 21.6958 25.2767 22.5839 24.5588 23.3528C23.3494 24.6398 21.706 25.6598 19.9509 26.5221C18.5499 27.2154 17.076 27.7475 15.5569 28.1083C15.1947 28.1921 14.8266 28.248 14.456 28.2756C14.0864 28.2479 13.7195 28.1919 13.3583 28.1083C11.8434 27.754 10.3727 27.2295 8.97381 26.5446C7.21875 25.6823 5.57538 24.6559 4.36598 23.3754C3.65757 22.6064 3.08957 21.7184 3.08957 20.7756C3.35762 20.0227 3.83627 19.3149 4.04688 18.5491C3.65757 18.8709 3.46611 19.2698 3.07042 19.5755C3.45797 18.3612 4.15312 17.2699 5.08715 16.4095C5.05679 16.9097 4.98743 17.4067 4.87973 17.896C4.69765 18.6821 4.64803 19.4935 4.73294 20.2962C4.73294 20.2962 5.87533 18.9449 5.9583 19.2055C5.1414 20.1997 5.37753 22.2332 5.70621 22.7705C5.81151 22.2203 5.81151 22.0304 6.05084 21.8052C6.22315 22.423 6.14657 23.2853 7.32725 24.5144C8.38347 25.6276 9.98856 26.3419 11.6702 26.9178C12.5739 27.2197 13.517 27.3845 14.4688 27.4069C14.936 27.3906 15.4018 27.3444 15.8632 27.2685C16.3413 27.1868 16.8127 27.0696 17.2737 26.9178C18.9521 26.3419 20.5572 25.6308 21.6134 24.5144C22.7814 23.2853 22.7048 22.423 22.8899 21.8052C23.1292 22.0144 23.1292 22.2042 23.2345 22.7705C23.5536 22.2332 23.7993 20.1965 22.9824 19.2055C23.0654 18.9449 24.2077 20.2962 24.2077 20.2962C24.2927 19.4935 24.243 18.6821 24.061 17.896C23.9533 17.4067 23.8839 16.9097 23.8535 16.4095C24.7876 17.2699 25.4827 18.3612 25.8703 19.5755C25.4746 19.2698 25.2831 18.858 24.8906 18.5491C25.0885 19.2988 25.5671 20.0066 25.8352 20.7531Z" fill="#333333"/>
</g>
<defs>
<clipPath id="clip0_1_719">
<rect width="29" height="30" fill="white"/>
</clipPath>
</defs>
</svg>
