<svg width="186" height="43" viewBox="0 0 186 43" fill="none" xmlns="http://www.w3.org/2000/svg">
<g clip-path="url(#clip0_1_428)">
<path fill-rule="evenodd" clip-rule="evenodd" d="M172.013 32.654V14.3687H175.201L175.483 17.6882C175.794 17.21 176.16 16.7599 176.584 16.3098C177.007 15.8597 177.515 15.4658 178.079 15.1283C178.643 14.7907 179.292 14.5094 179.997 14.3125C180.703 14.1155 181.521 14.003 182.395 14.003C183.044 14.003 183.665 14.0311 184.229 14.1155C184.794 14.1999 185.273 14.2843 185.64 14.425V17.5476C185.386 17.4632 185.104 17.4069 184.822 17.3506C184.54 17.2944 184.229 17.2662 183.919 17.21C183.609 17.1818 183.298 17.1537 182.96 17.1256C182.621 17.0975 182.283 17.0975 181.972 17.0975C181.323 17.0975 180.731 17.1537 180.223 17.2662C179.687 17.3788 179.207 17.5476 178.784 17.7163C178.361 17.9133 177.966 18.1383 177.627 18.3915C177.289 18.6447 176.979 18.8979 176.725 19.1792C176.471 19.4324 176.245 19.7137 176.048 19.9668C175.85 20.2482 175.709 20.4732 175.568 20.6983V32.5978H172.013V32.654ZM162.223 21.5422C162.139 20.8108 161.913 20.1638 161.546 19.573C161.179 18.9823 160.7 18.4478 160.136 18.0258C159.543 17.6038 158.866 17.2662 158.104 17.0131C157.342 16.788 156.496 16.6474 155.593 16.6474C154.69 16.6474 153.844 16.7599 153.082 17.0131C152.292 17.2381 151.615 17.5757 151.023 17.9977C150.43 18.4196 149.951 18.9541 149.612 19.5449C149.245 20.1356 149.048 20.8108 148.963 21.5422H162.223ZM164.396 31.4444C163.888 31.6695 163.324 31.8945 162.731 32.0914C162.139 32.2883 161.518 32.4571 160.841 32.6259C160.164 32.7666 159.43 32.8791 158.64 32.9635C157.85 33.0479 157.004 33.076 156.073 33.076C154.86 33.076 153.759 32.9635 152.772 32.7384C151.785 32.5134 150.882 32.2039 150.092 31.782C149.302 31.36 148.597 30.8536 148.004 30.291C147.412 29.7003 146.932 29.0532 146.537 28.3218C146.142 27.5904 145.86 26.8027 145.662 25.9588C145.465 25.1149 145.352 24.1865 145.352 23.2301C145.352 22.358 145.465 21.5141 145.662 20.7264C145.86 19.9106 146.17 19.1792 146.565 18.504C146.96 17.8289 147.44 17.1818 148.032 16.6192C148.597 16.0566 149.274 15.5784 150.035 15.1845C150.797 14.7907 151.644 14.4812 152.546 14.2562C153.477 14.0311 154.465 13.9186 155.565 13.9186C156.637 13.9186 157.625 14.0311 158.527 14.2281C159.43 14.425 160.277 14.7063 161.01 15.1001C161.772 15.4658 162.421 15.9159 163.013 16.4504C163.578 16.9849 164.085 17.5757 164.48 18.2508C164.875 18.8979 165.157 19.6293 165.383 20.4169C165.581 21.2046 165.693 22.0204 165.693 22.8644C165.693 22.9769 165.693 23.0894 165.693 23.2301C165.693 23.3426 165.693 23.4833 165.665 23.5958C165.665 23.7083 165.637 23.849 165.637 23.9615C165.637 24.074 165.609 24.1584 165.609 24.2428H148.907C148.963 25.143 149.161 25.9588 149.499 26.7183C149.838 27.4498 150.318 28.0968 150.938 28.6031C151.559 29.1376 152.349 29.5315 153.252 29.8128C154.183 30.0941 155.255 30.2348 156.468 30.2348C157.342 30.2348 158.161 30.1785 158.894 30.0941C159.628 30.0097 160.305 29.8972 160.954 29.7284C161.603 29.5877 162.195 29.3908 162.759 29.1939C163.324 28.997 163.86 28.8001 164.396 28.575V31.4444ZM135.675 32.654V21.5703C135.675 20.6701 135.562 19.9106 135.308 19.2917C135.054 18.6728 134.688 18.1664 134.208 17.8007C133.728 17.4069 133.108 17.1537 132.402 16.9849C131.669 16.8161 130.851 16.7317 129.891 16.7317C129.186 16.7317 128.481 16.788 127.776 16.9005C127.098 17.0131 126.421 17.1537 125.801 17.3506C125.18 17.5476 124.587 17.7445 124.08 17.9977C123.544 18.2508 123.092 18.504 122.669 18.7853C122.754 19.0948 122.782 19.4323 122.838 19.8262C122.895 20.1919 122.923 20.5857 122.923 20.9796V32.6822H119.396V21.5703C119.396 20.6701 119.283 19.9106 119.03 19.2917C118.776 18.6728 118.409 18.1664 117.929 17.8007C117.45 17.4069 116.829 17.1537 116.124 16.9849C115.39 16.8161 114.544 16.7317 113.584 16.7317C112.907 16.7317 112.23 16.788 111.553 16.8724C110.904 16.9849 110.255 17.1256 109.663 17.2944C109.07 17.4632 108.506 17.6601 107.97 17.9133C107.462 18.1383 106.983 18.3915 106.588 18.6447V32.654H103.061V14.3687H106.023L106.306 16.1973C106.757 15.8597 107.293 15.5502 107.886 15.2971C108.478 15.0157 109.127 14.7907 109.804 14.5938C110.481 14.3969 111.215 14.2281 112.005 14.1437C112.766 14.0311 113.556 13.9749 114.374 13.9749C115.136 13.9749 115.87 14.0311 116.603 14.1155C117.337 14.2281 118.014 14.3687 118.635 14.5938C119.255 14.8188 119.848 15.1001 120.384 15.4658C120.92 15.8315 121.371 16.2535 121.766 16.788C122.189 16.3942 122.754 16.0566 123.374 15.6909C124.023 15.3533 124.729 15.0439 125.49 14.7907C126.28 14.5375 127.098 14.3406 127.973 14.1718C128.848 14.0311 129.75 13.9468 130.681 13.9468C131.443 13.9468 132.205 14.003 132.91 14.0874C133.644 14.1718 134.321 14.3406 134.942 14.5656C135.562 14.7907 136.155 15.072 136.691 15.4377C137.227 15.8034 137.678 16.2254 138.045 16.7599C138.44 17.2944 138.722 17.8851 138.92 18.5884C139.117 19.2917 139.23 20.0794 139.23 20.9796V32.6822H135.675V32.654ZM93.2431 21.5422C93.1584 20.8108 92.9327 20.1638 92.566 19.573C92.1992 18.9823 91.7196 18.4478 91.1553 18.0258C90.5629 17.6038 89.8858 17.2662 89.124 17.0131C88.3623 16.788 87.5159 16.6474 86.6131 16.6474C85.7103 16.6474 84.8639 16.7599 84.1021 17.0131C83.3122 17.2381 82.6351 17.5757 82.0426 17.9977C81.4501 18.4196 80.9705 18.9541 80.632 19.5449C80.2652 20.1356 80.0677 20.8108 79.9831 21.5422H93.2431ZM95.4155 31.4444C94.9076 31.6695 94.3434 31.8945 93.7509 32.0914C93.1584 32.2883 92.5378 32.4571 91.8607 32.6259C91.1836 32.7666 90.45 32.8791 89.6601 32.9635C88.8701 33.0479 88.0237 33.076 87.0927 33.076C85.8796 33.076 84.7793 32.9635 83.7918 32.7384C82.8044 32.5134 81.9016 32.2039 81.1116 31.782C80.3216 31.36 79.6163 30.8536 79.0238 30.291C78.4314 29.7003 77.9518 29.0532 77.5568 28.3218C77.1618 27.5904 76.8797 26.8027 76.6822 25.9588C76.4847 25.1149 76.3719 24.1865 76.3719 23.2301C76.3719 22.358 76.4847 21.5141 76.6822 20.7264C76.8797 19.9106 77.19 19.1792 77.585 18.504C77.98 17.8289 78.4596 17.1818 79.0521 16.6192C79.6163 16.0566 80.2934 15.5784 81.0552 15.1845C81.8169 14.7907 82.6633 14.4812 83.5661 14.2562C84.4971 14.0311 85.4846 13.9186 86.5849 13.9186C87.657 13.9186 88.6444 14.0311 89.5472 14.2281C90.45 14.425 91.2964 14.7063 92.0299 15.1001C92.7917 15.4658 93.4406 15.9159 94.033 16.4504C94.5973 16.9849 95.1051 17.5757 95.5001 18.2508C95.8951 18.8979 96.1772 19.6293 96.4029 20.4169C96.6004 21.2046 96.7133 22.0204 96.7133 22.8644C96.7133 22.9769 96.7133 23.0894 96.7133 23.2301C96.7133 23.3426 96.7133 23.4833 96.6851 23.5958C96.6851 23.7083 96.6568 23.849 96.6568 23.9615C96.6568 24.074 96.6286 24.1584 96.6286 24.2428H79.9267C79.9831 25.143 80.1806 25.9588 80.5191 26.7183C80.8577 27.4498 81.3373 28.0968 81.958 28.6031C82.5787 29.1376 83.3686 29.5315 84.2714 29.8128C85.2025 30.0941 86.2745 30.2348 87.4877 30.2348C88.3623 30.2348 89.1805 30.1785 89.914 30.0941C90.6475 30.0097 91.3246 29.8972 91.9735 29.7284C92.6224 29.5877 93.2149 29.3908 93.7791 29.1939C94.3434 28.997 94.8794 28.8001 95.4155 28.575V31.4444ZM66.6949 32.654V21.5703C66.6949 20.6701 66.582 19.9106 66.3281 19.2917C66.0742 18.6728 65.7074 18.1664 65.2278 17.8007C64.7482 17.4069 64.1275 17.1537 63.4222 16.9849C62.6887 16.8161 61.8423 16.7317 60.883 16.7317C60.2059 16.7317 59.5288 16.788 58.8517 16.8724C58.2028 16.9849 57.5539 17.1256 56.9615 17.2944C56.369 17.4632 55.8047 17.6601 55.2687 17.9133C54.7609 18.1383 54.2813 18.3915 53.8863 18.6447V32.654H50.3597V14.3687H53.322L53.6042 16.1973C54.0556 15.8597 54.5916 15.5502 55.1841 15.2971C55.7765 15.0157 56.4254 14.7907 57.1025 14.5938C57.7796 14.3969 58.5132 14.2281 59.2749 14.1437C60.0367 14.0311 60.8266 13.9749 61.6448 13.9749C62.4065 13.9749 63.1683 14.0311 63.8736 14.1155C64.6071 14.1999 65.2842 14.3687 65.9049 14.5938C66.5256 14.8188 67.1181 15.1001 67.6541 15.4658C68.1902 15.8315 68.6416 16.2535 69.0083 16.788C69.4033 17.3225 69.6854 17.9133 69.8829 18.6165C70.0804 19.3198 70.1933 20.1075 70.1933 21.0077V32.7103H66.6949V32.654ZM31.0621 18.7009C30.4415 13.9468 23.6704 9.2207 17.1815 11.7806C11.3696 14.0311 9.0844 20.6701 11.5953 26.0995C14.2191 31.7538 21.5827 33.4699 26.4635 30.4317C26.9713 30.1222 27.7613 29.5877 28.0716 29.2783C30.3568 27.0278 32.6985 28.9689 32.9806 30.6005C33.5449 34.0043 26.5763 36.8456 23.4165 37.3238C21.5262 37.6051 19.9745 37.1551 19.0153 38.5054C18.0278 39.9119 18.7614 41.6842 20.0027 42.2468C21.0184 42.6969 23.5293 42.3593 24.7143 42.1624C27.733 41.6561 30.3568 40.4745 32.5574 39.068C39.7799 34.4263 43.645 25.368 41.5291 16.563C38.7078 4.83222 26.4917 -2.14434 14.7834 1.42833C6.40419 3.96015 0.789849 11.3868 0.0563172 19.6293C-0.479725 25.4806 3.97789 24.4678 4.76785 22.2736C5.16283 21.0358 4.51393 12.9059 12.3007 8.01105C18.846 3.87576 27.3663 4.94474 32.5292 10.2053C33.2063 10.9086 34.222 12.2307 34.8427 13.2435C36.1687 15.4658 37.3818 18.7853 37.0715 21.8516C36.7611 25.0867 33.4038 24.2991 28.6076 24.2709C26.8302 24.2709 18.8178 24.5241 17.8868 24.0459C15.4887 22.8081 15.658 20.0231 17.7457 18.9541C18.9307 18.4196 29.2847 18.6728 31.0621 18.7009Z" fill="#1F1F1F"/>
</g>
<defs>
<clipPath id="clip0_1_428">
<rect width="186" height="42" fill="white" transform="translate(0 0.5)"/>
</clipPath>
</defs>
</svg>
