<svg width="16" height="16" viewBox="0 0 16 16" fill="none" xmlns="http://www.w3.org/2000/svg">
<g clip-path="url(#clip0_3_272)">
<path d="M7.97505 0.5C4.72505 0.5 1.95005 2.6 0.925049 5.5H15.075C14.025 2.6 11.25 0.5 7.97505 0.5Z" fill="#F9F9F9"/>
<path d="M7.97505 15.5C11.25 15.5 14.025 13.4 15.05 10.5H0.925049C1.95005 13.425 4.72505 15.5 7.97505 15.5Z" fill="#ED4C5C"/>
<path d="M0.925 5.5C0.65 6.275 0.5 7.125 0.5 8C0.5 8.875 0.65 9.725 0.925 10.5H15.075C15.35 9.725 15.5 8.875 15.5 8C15.5 7.125 15.35 6.275 15.075 5.5H0.925Z" fill="#428BC1"/>
</g>
<defs>
<clipPath id="clip0_3_272">
<rect width="16" height="16" fill="white"/>
</clipPath>
</defs>
</svg>
